<?xml version="1.0" encoding="UTF-8" standalone="no"?>
<!DOCTYPE svg PUBLIC "-//W3C//DTD SVG 1.1//EN" "http://www.w3.org/Graphics/SVG/1.1/DTD/svg11.dtd">
<svg width="100%" height="100%" viewBox="0 0 13 19" version="1.1" xmlns="http://www.w3.org/2000/svg" xmlns:xlink="http://www.w3.org/1999/xlink" xml:space="preserve" style="fill-rule:evenodd;clip-rule:evenodd;stroke-linejoin:round;stroke-miterlimit:1.41421;">
    <g transform="matrix(1,0,0,1,-1817.8,-1089.3)">
        <g id="prev" transform="matrix(-1,0,0,1,1831,1107)">
            <path d="M12.973,-7.723L4.277,0.973C4.129,1.121 3.953,1.195 3.75,1.195C3.547,1.195 3.371,1.121 3.223,0.973L1.277,-0.973C1.129,-1.121 1.055,-1.297 1.055,-1.5C1.055,-1.703 1.129,-1.879 1.277,-2.027L7.5,-8.25L1.277,-14.473C1.129,-14.621 1.055,-14.797 1.055,-15C1.055,-15.203 1.129,-15.379 1.277,-15.527L3.223,-17.473C3.371,-17.621 3.547,-17.695 3.75,-17.695C3.953,-17.695 4.129,-17.621 4.277,-17.473L12.973,-8.777C13.121,-8.629 13.195,-8.453 13.195,-8.25C13.195,-8.047 13.121,-7.871 12.973,-7.723Z" style="fill:rgb(85,85,85);fill-rule:nonzero;"/>
        </g>
    </g>
</svg>
