<?xml version="1.0" encoding="utf-8"?>
<!-- Generator: Adobe Illustrator 21.0.2, SVG Export Plug-In . SVG Version: 6.00 Build 0)  -->
<svg version="1.1" id="Layer_1" xmlns="http://www.w3.org/2000/svg" xmlns:xlink="http://www.w3.org/1999/xlink" x="0px" y="0px"
	 viewBox="0 0 1024 1024" style="enable-background:new 0 0 1024 1024;" xml:space="preserve">
<style type="text/css">
	.st0{enable-background:new    ;}
	.st1{fill:#FF3530;}
</style>
<g class="st0">
	<path class="st1" d="M156,496.4l-34.6,33.7l8.2,47.6c0.1,0.7,0.1,1.2,0.1,1.9c0,2.5-1.1,4.8-3.9,4.8c-1.3,0-2.7-0.5-3.8-1.1
		l-42.8-22.5l-42.8,22.5c-1.2,0.7-2.5,1.1-3.8,1.1c-2.8,0-4-2.3-4-4.8c0-0.7,0.1-1.2,0.2-1.9l8.2-47.6L2.4,496.4
		c-1.1-1.2-2.4-2.9-2.4-4.6c0-2.9,3-4,5.3-4.4l47.8-7l21.4-43.3c0.9-1.8,2.5-3.9,4.7-3.9s3.8,2.1,4.7,3.9l21.4,43.3l47.8,7
		c2.3,0.4,5.3,1.5,5.3,4.4C158.5,493.5,157.2,495.1,156,496.4z"/>
</g>
<g class="st0">
	<path class="st1" d="M366.1,496.4l-34.6,33.7l8.2,47.6c0.1,0.7,0.1,1.2,0.1,1.9c0,2.5-1.1,4.8-3.9,4.8c-1.3,0-2.7-0.5-3.8-1.1
		l-42.8-22.5l-42.8,22.5c-1.2,0.7-2.5,1.1-3.8,1.1c-2.8,0-4-2.3-4-4.8c0-0.7,0.1-1.2,0.2-1.9l8.2-47.6l-34.7-33.7
		c-1.1-1.2-2.4-2.9-2.4-4.6c0-2.9,3-4,5.3-4.4l47.8-7l21.4-43.3c0.9-1.8,2.5-3.9,4.7-3.9s3.8,2.1,4.7,3.9l21.4,43.3l47.8,7
		c2.3,0.4,5.3,1.5,5.3,4.4C368.5,493.5,367.3,495.1,366.1,496.4z"/>
</g>
<g class="st0">
	<path class="st1" d="M576.1,496.4l-34.6,33.7l8.2,47.6c0.1,0.7,0.1,1.2,0.1,1.9c0,2.5-1.1,4.8-3.9,4.8c-1.3,0-2.7-0.5-3.8-1.1
		l-42.8-22.5l-42.8,22.5c-1.2,0.7-2.5,1.1-3.8,1.1c-2.8,0-4-2.3-4-4.8c0-0.7,0.1-1.2,0.2-1.9l8.2-47.6l-34.7-33.7
		c-1.1-1.2-2.4-2.9-2.4-4.6c0-2.9,3-4,5.3-4.4l47.8-7l21.4-43.3c0.9-1.8,2.5-3.9,4.7-3.9s3.8,2.1,4.7,3.9l21.4,43.3l47.8,7
		c2.3,0.4,5.3,1.5,5.3,4.4C578.6,493.5,577.4,495.1,576.1,496.4z"/>
</g>
<g class="st0">
	<path class="st1" d="M799.3,496.4l-34.6,33.7l8.2,47.6c0.1,0.7,0.1,1.2,0.1,1.9c0,2.5-1.1,4.8-3.9,4.8c-1.3,0-2.7-0.5-3.8-1.1
		l-42.8-22.5l-42.8,22.5c-1.2,0.7-2.5,1.1-3.8,1.1c-2.8,0-4-2.3-4-4.8c0-0.7,0.1-1.2,0.2-1.9l8.2-47.6l-34.7-33.7
		c-1.1-1.2-2.4-2.9-2.4-4.6c0-2.9,3-4,5.3-4.4l47.8-7l21.4-43.3c0.9-1.8,2.5-3.9,4.7-3.9s3.8,2.1,4.7,3.9l21.4,43.3l47.8,7
		c2.3,0.4,5.3,1.5,5.3,4.4C801.8,493.5,800.5,495.1,799.3,496.4z"/>
</g>
<g class="st0">
	<path class="st1" d="M1009.3,496.4l-34.6,33.7l8.2,47.6c0.1,0.7,0.1,1.2,0.1,1.9c0,2.5-1.1,4.8-3.9,4.8c-1.3,0-2.7-0.5-3.8-1.1
		l-42.8-22.5l-42.8,22.5c-1.2,0.7-2.5,1.1-3.8,1.1c-2.8,0-4-2.3-4-4.8c0-0.7,0.1-1.2,0.2-1.9l8.2-47.6l-34.7-33.7
		c-1.1-1.2-2.4-2.9-2.4-4.6c0-2.9,3-4,5.3-4.4l47.8-7l21.4-43.3c0.9-1.8,2.5-3.9,4.7-3.9s3.8,2.1,4.7,3.9l21.4,43.3l47.8,7
		c2.3,0.4,5.3,1.5,5.3,4.4C1011.8,493.5,1010.6,495.1,1009.3,496.4z"/>
</g>
</svg>
